<svg width="308" height="221" viewBox="0 0 308 221" fill="none" xmlns="http://www.w3.org/2000/svg">
<path d="M124.825 12.4818H16.7014V120.606H124.825V12.4818Z" fill="#F4F4F4"/>
<path d="M16.7009 12.4818H15.4618V120.606H16.7009V12.4818Z" fill="#F4F4F4"/>
<path opacity="0.05" d="M16.7009 12.4818H15.4618V120.606H16.7009V12.4818Z" fill="#292A2E"/>
<path opacity="0.05" d="M42.8946 86.988V58.6994H66.0672V75.1346H101.962V104.235H117.217V120.606H101.962H99.023H21.9024V86.988H42.8946Z" fill="#292A2E"/>
<path opacity="0.34" d="M63.093 61.7706H46.2184V64.8422H63.093V61.7706Z" fill="#FFFFFA"/>
<path opacity="0.34" d="M63.093 68.1355H46.2184V71.2071H63.093V68.1355Z" fill="#FFFFFA"/>
<path opacity="0.34" d="M63.093 74.5003H46.2184V77.572H63.093V74.5003Z" fill="#FFFFFA"/>
<path opacity="0.34" d="M28.0052 89.9695H24.8949V93.0411H28.0052V89.9695Z" fill="#FFFFFA"/>
<path opacity="0.34" d="M28.0052 96.3344H24.8949V99.406H28.0052V96.3344Z" fill="#FFFFFA"/>
<path opacity="0.34" d="M28.0052 102.699H24.8949V105.771H28.0052V102.699Z" fill="#FFFFFA"/>
<path opacity="0.34" d="M33.7588 89.9695H30.6485V93.0411H33.7588V89.9695Z" fill="#FFFFFA"/>
<path opacity="0.34" d="M33.7588 96.3344H30.6485V99.406H33.7588V96.3344Z" fill="#FFFFFA"/>
<path opacity="0.34" d="M33.7588 102.699H30.6485V105.771H33.7588V102.699Z" fill="#FFFFFA"/>
<path opacity="0.34" d="M39.3572 89.9695H36.2468V93.0411H39.3572V89.9695Z" fill="#FFFFFA"/>
<path opacity="0.34" d="M39.3572 96.3344H36.2468V99.406H39.3572V96.3344Z" fill="#FFFFFA"/>
<path opacity="0.34" d="M39.3572 102.699H36.2468V105.771H39.3572V102.699Z" fill="#FFFFFA"/>
<path d="M16.7014 65.9371H38.4575V12.4818H40.2568V65.9371H99.023V12.4818H100.822V65.9371H124.825V67.7365H100.822V120.606H99.023V67.7365H40.2568V120.606H38.4575V67.7365H16.7014V65.9371Z" fill="white"/>
<path d="M129.133 120.475H12.394V124.071H129.133V120.475Z" fill="#F4F4F4"/>
<path opacity="0.1" d="M129.133 120.475H12.394V124.071H129.133V120.475Z" fill="#292A2E"/>
<path opacity="0.1" d="M12.3936 120.475H10.7083V124.071H12.3936V120.475Z" fill="#292A2E"/>
<path opacity="0.1" d="M12.3936 120.475H10.7083V124.071H12.3936V120.475Z" fill="#292A2E"/>
<path d="M15.4618 17.0856L124.825 17.0856V14.4121L15.4618 14.4121V17.0856Z" fill="white"/>
<path d="M15.4618 22.079L124.825 22.079V19.4056L15.4618 19.4056V22.079Z" fill="white"/>
<path d="M15.4618 27.0721L124.825 27.0721V24.3986L15.4618 24.3986V27.0721Z" fill="white"/>
<path d="M15.4618 32.0656L124.825 32.0656V29.3921L15.4618 29.3921V32.0656Z" fill="white"/>
<path d="M15.4618 37.0594L124.825 37.0594V34.3859L15.4618 34.3859V37.0594Z" fill="white"/>
<path d="M27.0775 40.0745H28.7165L28.7165 12.4814H27.0775L27.0775 40.0745Z" fill="white"/>
<path d="M27.7581 44.0372C29.0016 44.0372 30.0096 43.0292 30.0096 41.7857C30.0096 40.5423 29.0016 39.5342 27.7581 39.5342C26.5146 39.5342 25.5066 40.5423 25.5066 41.7857C25.5066 43.0292 26.5146 44.0372 27.7581 44.0372Z" fill="white"/>
<path d="M263.975 11.8777H218.481V71.0935H263.975V11.8777Z" fill="#F4F4F4"/>
<path d="M263.975 71.0935H265.451V11.8777H263.975V71.0935Z" fill="#F4F4F4"/>
<path opacity="0.05" d="M263.975 71.0935H265.451V11.8777H263.975V71.0935Z" fill="#292A2E"/>
<path opacity="0.05" d="M255.688 22.6643H226.768V60.3065H255.688V22.6643Z" fill="#292A2E"/>
<path opacity="0.03" d="M255.688 22.6643H254.181V60.3065H255.688V22.6643Z" fill="#292A2E"/>
<path d="M301.182 85.6557H263.975V123.204H301.182V85.6557Z" fill="#F4F4F4"/>
<path opacity="0.05" d="M294.404 92.4957H270.753V116.364H294.404V92.4957Z" fill="#292A2E"/>
<path d="M301.182 123.204H302.658V85.6553H301.182V123.204Z" fill="#F4F4F4"/>
<path opacity="0.05" d="M301.182 123.204H302.658V85.6553H301.182V123.204Z" fill="#292A2E"/>
<path opacity="0.03" d="M294.404 92.4957H292.897V116.364H294.404V92.4957Z" fill="#292A2E"/>
<path d="M177.798 149.258C177.749 149.258 177.7 149.247 177.656 149.225L104.402 113.018C104.354 112.995 104.313 112.96 104.282 112.916C104.252 112.872 104.232 112.822 104.226 112.769C104.22 112.716 104.228 112.662 104.248 112.613C104.268 112.563 104.3 112.52 104.341 112.486L177.572 52.4005C177.629 52.3536 177.701 52.328 177.775 52.328C177.848 52.328 177.92 52.3536 177.977 52.4005L251.254 112.486C251.295 112.52 251.327 112.563 251.347 112.613C251.367 112.662 251.375 112.716 251.368 112.769C251.362 112.822 251.343 112.872 251.313 112.916C251.282 112.959 251.241 112.995 251.193 113.018L177.939 149.227C177.895 149.248 177.847 149.259 177.798 149.258ZM105.128 112.666L177.798 148.585L250.467 112.666L177.774 53.0586L105.128 112.666Z" fill="#292A2E"/>
<path d="M256.735 0.398682L242.155 19.9399V186.223C242.155 187.795 241.53 189.302 240.419 190.413C239.308 191.524 237.8 192.149 236.229 192.149H119.32C118.542 192.149 117.771 191.996 117.052 191.698C116.333 191.4 115.68 190.963 115.13 190.413C114.58 189.863 114.143 189.21 113.846 188.491C113.548 187.772 113.395 187.001 113.395 186.223V16.4089C113.395 12.1628 115.081 8.09059 118.084 5.08811C121.086 2.08563 125.158 0.398794 129.404 0.398682H256.735Z" fill="white"/>
<path d="M236.229 192.466H119.32C117.665 192.464 116.078 191.805 114.907 190.635C113.737 189.465 113.078 187.878 113.075 186.223V16.4089C113.08 12.0796 114.802 7.92909 117.863 4.86784C120.925 1.80659 125.075 0.0846045 129.404 0.0796509L256.735 0.0796509C256.794 0.0798081 256.852 0.0964025 256.903 0.127583C256.953 0.158764 256.994 0.203306 257.02 0.25624C257.046 0.309175 257.058 0.368421 257.053 0.427371C257.047 0.486322 257.026 0.542658 256.99 0.590099L242.474 20.0458V186.223C242.471 187.878 241.812 189.465 240.641 190.635C239.471 191.805 237.884 192.464 236.229 192.466ZM129.404 0.717711C125.244 0.722439 121.256 2.37713 118.314 5.31877C115.373 8.26041 113.718 12.2488 113.713 16.4089V186.223C113.715 187.709 114.307 189.134 115.358 190.185C116.409 191.236 117.834 191.828 119.32 191.83H236.229C237.715 191.828 239.14 191.236 240.191 190.185C241.242 189.134 241.833 187.709 241.836 186.223V19.9399C241.836 19.8711 241.858 19.8041 241.899 19.7489L256.099 0.717711H129.404Z" fill="#292A2E"/>
<path opacity="0.3" d="M218.339 21.612H137.257C136.994 21.612 136.782 21.8248 136.782 22.0872V22.8639C136.782 23.1263 136.994 23.339 137.257 23.339H218.339C218.601 23.339 218.814 23.1263 218.814 22.8639V22.0872C218.814 21.8248 218.601 21.612 218.339 21.612Z" fill="#262626"/>
<path d="M242.155 14.9792C242.155 11.1122 243.691 7.40362 246.425 4.66925C249.16 1.93487 252.868 0.398712 256.735 0.398712C260.602 0.398712 264.311 1.93487 267.045 4.66925C269.78 7.40362 271.316 11.1122 271.316 14.9792V27.2891H242.155V14.9792Z" fill="white"/>
<path d="M271.315 27.6081H242.155C242.07 27.6081 241.989 27.5745 241.929 27.5146C241.869 27.4548 241.836 27.3737 241.836 27.2891V14.9792C241.825 13.0159 242.203 11.0699 242.947 9.25297C243.691 7.43609 244.787 5.78418 246.171 4.39219C247.556 3.0002 249.202 1.89558 251.015 1.14182C252.828 0.388061 254.772 3.05176e-05 256.735 3.05176e-05C258.698 3.05176e-05 260.642 0.388061 262.455 1.14182C264.268 1.89558 265.914 3.0002 267.299 4.39219C268.683 5.78418 269.779 7.43609 270.523 9.25297C271.267 11.0699 271.645 13.0159 271.634 14.9792V27.2891C271.634 27.3737 271.601 27.4548 271.541 27.5146C271.481 27.5745 271.4 27.6081 271.315 27.6081ZM242.475 26.97H270.997V14.9792C271.008 13.0998 270.646 11.2369 269.934 9.49768C269.222 7.75841 268.173 6.17704 266.848 4.84448C265.523 3.51192 263.947 2.45445 262.212 1.73287C260.476 1.01128 258.616 0.639813 256.736 0.639813C254.857 0.639813 252.996 1.01128 251.261 1.73287C249.525 2.45445 247.95 3.51192 246.624 4.84448C245.299 6.17704 244.25 7.75841 243.538 9.49768C242.826 11.2369 242.465 13.0998 242.475 14.9792V26.97Z" fill="#292A2E"/>
<path opacity="0.3" d="M231.315 57.8683H176.327C176.108 57.8683 175.93 58.0458 175.93 58.2647V58.2652C175.93 58.4841 176.108 58.6616 176.327 58.6616H231.315C231.534 58.6616 231.712 58.4841 231.712 58.2652V58.2647C231.712 58.0458 231.534 57.8683 231.315 57.8683Z" fill="#262626"/>
<path opacity="0.3" d="M231.315 52.2355H176.327C176.108 52.2355 175.93 52.413 175.93 52.6319V52.6323C175.93 52.8513 176.108 53.0288 176.327 53.0288H231.315C231.534 53.0288 231.712 52.8513 231.712 52.6323V52.6319C231.712 52.413 231.534 52.2355 231.315 52.2355Z" fill="#262626"/>
<path opacity="0.3" d="M231.315 46.6023H176.327C176.108 46.6023 175.93 46.7798 175.93 46.9987V46.9991C175.93 47.2181 176.108 47.3956 176.327 47.3956H231.315C231.534 47.3956 231.712 47.2181 231.712 46.9991V46.9987C231.712 46.7798 231.534 46.6023 231.315 46.6023Z" fill="#262626"/>
<path opacity="0.3" d="M231.315 40.9695H176.327C176.108 40.9695 175.93 41.147 175.93 41.3659V41.3664C175.93 41.5853 176.108 41.7628 176.327 41.7628H231.315C231.534 41.7628 231.712 41.5853 231.712 41.3664V41.3659C231.712 41.147 231.534 40.9695 231.315 40.9695Z" fill="#262626"/>
<path opacity="0.3" d="M231.315 35.3116H176.327C176.108 35.3116 175.93 35.4891 175.93 35.708V35.7085C175.93 35.9274 176.108 36.1049 176.327 36.1049H231.315C231.534 36.1049 231.712 35.9274 231.712 35.7085V35.708C231.712 35.4891 231.534 35.3116 231.315 35.3116Z" fill="#262626"/>
<path opacity="0.3" d="M208.58 63.5011H176.327C176.108 63.5011 175.93 63.6786 175.93 63.8975V63.8979C175.93 64.1169 176.108 64.2944 176.327 64.2944H208.58C208.799 64.2944 208.977 64.1169 208.977 63.8979V63.8975C208.977 63.6786 208.799 63.5011 208.58 63.5011Z" fill="#262626"/>
<path opacity="0.9" d="M167.38 30.7843H125.185C124.466 30.7843 123.884 31.3669 123.884 32.0855V66.6735C123.884 67.3921 124.466 67.9747 125.185 67.9747H167.38C168.099 67.9747 168.682 67.3921 168.682 66.6735V32.0855C168.682 31.3669 168.099 30.7843 167.38 30.7843Z" fill="#0CBC8B"/>
<path opacity="0.8" d="M139.508 45.546C141.298 45.546 142.749 44.0948 142.749 42.3047C142.749 40.5146 141.298 39.0634 139.508 39.0634C137.718 39.0634 136.266 40.5146 136.266 42.3047C136.266 44.0948 137.718 45.546 139.508 45.546Z" fill="white"/>
<path opacity="0.5" d="M143.971 57.4599L153.368 46.977C153.955 46.3227 154.776 45.9261 155.653 45.8731C156.53 45.82 157.393 46.1149 158.055 46.6937L168.682 55.9983V67.9743H155.835" fill="white"/>
<path opacity="0.8" d="M155.836 67.9742L135.46 49.9172C134.858 49.3837 134.084 49.0856 133.279 49.0778C132.474 49.0699 131.694 49.3529 131.082 49.8746L123.884 56V67.9759" fill="white"/>
<path opacity="0.3" d="M231.277 95.0854H124.319C124.1 95.0854 123.922 95.2629 123.922 95.4819V95.4823C123.922 95.7013 124.1 95.8788 124.319 95.8788H231.277C231.496 95.8788 231.674 95.7013 231.674 95.4823V95.4819C231.674 95.2629 231.496 95.0854 231.277 95.0854Z" fill="#262626"/>
<path opacity="0.3" d="M231.277 89.4526H124.319C124.1 89.4526 123.922 89.6301 123.922 89.8491V89.8495C123.922 90.0685 124.1 90.246 124.319 90.246H231.277C231.496 90.246 231.674 90.0685 231.674 89.8495V89.8491C231.674 89.6301 231.496 89.4526 231.277 89.4526Z" fill="#262626"/>
<path opacity="0.3" d="M231.277 83.8194H124.319C124.1 83.8194 123.922 83.9969 123.922 84.2159V84.2163C123.922 84.4353 124.1 84.6128 124.319 84.6128H231.277C231.496 84.6128 231.674 84.4353 231.674 84.2163V84.2159C231.674 83.9969 231.496 83.8194 231.277 83.8194Z" fill="#262626"/>
<path opacity="0.3" d="M231.277 78.1866H124.319C124.1 78.1866 123.922 78.3641 123.922 78.5831V78.5835C123.922 78.8025 124.1 78.98 124.319 78.98H231.277C231.496 78.98 231.674 78.8025 231.674 78.5835V78.5831C231.674 78.3641 231.496 78.1866 231.277 78.1866Z" fill="#262626"/>
<path opacity="0.3" d="M156.572 100.719H124.319C124.1 100.719 123.922 100.896 123.922 101.115V101.116C123.922 101.334 124.1 101.512 124.319 101.512H156.572C156.791 101.512 156.969 101.334 156.969 101.116V101.115C156.969 100.896 156.791 100.719 156.572 100.719Z" fill="#262626"/>
<path opacity="0.3" d="M231.277 127.569H124.319C124.1 127.569 123.922 127.747 123.922 127.966V127.966C123.922 128.185 124.1 128.362 124.319 128.362H231.277C231.496 128.362 231.674 128.185 231.674 127.966V127.966C231.674 127.747 231.496 127.569 231.277 127.569Z" fill="#262626"/>
<path opacity="0.3" d="M231.277 121.936H124.319C124.1 121.936 123.922 122.114 123.922 122.333V122.333C123.922 122.552 124.1 122.73 124.319 122.73H231.277C231.496 122.73 231.674 122.552 231.674 122.333V122.333C231.674 122.114 231.496 121.936 231.277 121.936Z" fill="#262626"/>
<path opacity="0.3" d="M231.277 116.303H124.319C124.1 116.303 123.922 116.481 123.922 116.7V116.7C123.922 116.919 124.1 117.096 124.319 117.096H231.277C231.496 117.096 231.674 116.919 231.674 116.7V116.7C231.674 116.481 231.496 116.303 231.277 116.303Z" fill="#262626"/>
<path opacity="0.3" d="M231.277 110.67H124.319C124.1 110.67 123.922 110.848 123.922 111.067V111.067C123.922 111.286 124.1 111.464 124.319 111.464H231.277C231.496 111.464 231.674 111.286 231.674 111.067V111.067C231.674 110.848 231.496 110.67 231.277 110.67Z" fill="#262626"/>
<path opacity="0.3" d="M156.572 133.202H124.319C124.1 133.202 123.922 133.379 123.922 133.598V133.599C123.922 133.818 124.1 133.995 124.319 133.995H156.572C156.791 133.995 156.969 133.818 156.969 133.599V133.598C156.969 133.379 156.791 133.202 156.572 133.202Z" fill="#262626"/>
<path d="M243.899 197.439H111.696C109.799 197.439 107.98 196.686 106.638 195.344C105.297 194.003 104.543 192.184 104.543 190.287V112.732L177.798 148.941L251.052 112.732V190.287C251.052 191.226 250.867 192.156 250.507 193.024C250.148 193.892 249.621 194.68 248.957 195.344C248.293 196.008 247.504 196.535 246.636 196.895C245.768 197.254 244.838 197.439 243.899 197.439Z" fill="#367CFF"/>
<path opacity="0.78" d="M243.899 197.439H111.696C109.799 197.439 107.98 196.686 106.638 195.344C105.297 194.003 104.543 192.184 104.543 190.287V112.732L177.798 148.941L251.052 112.732V190.287C251.052 191.226 250.867 192.156 250.507 193.024C250.148 193.892 249.621 194.68 248.957 195.344C248.293 196.008 247.504 196.535 246.636 196.895C245.768 197.254 244.838 197.439 243.899 197.439Z" fill="white"/>
<path d="M243.899 197.758H111.696C109.715 197.756 107.816 196.968 106.415 195.567C105.015 194.167 104.227 192.267 104.224 190.286V112.732C104.224 112.678 104.238 112.625 104.265 112.577C104.291 112.53 104.329 112.49 104.375 112.461C104.421 112.433 104.474 112.416 104.528 112.414C104.582 112.411 104.636 112.423 104.685 112.447L177.798 148.585L250.911 112.447C250.959 112.422 251.013 112.411 251.067 112.414C251.122 112.416 251.174 112.433 251.22 112.461C251.266 112.49 251.304 112.53 251.331 112.577C251.357 112.625 251.371 112.678 251.371 112.732V190.286C251.369 192.267 250.581 194.167 249.18 195.567C247.779 196.968 245.88 197.756 243.899 197.758ZM104.862 113.246V190.286C104.865 192.098 105.585 193.835 106.866 195.116C108.147 196.397 109.884 197.118 111.696 197.12H243.899C245.711 197.118 247.448 196.397 248.729 195.116C250.01 193.835 250.731 192.098 250.733 190.286V113.246L177.939 149.227C177.895 149.248 177.847 149.259 177.798 149.259C177.749 149.259 177.7 149.248 177.656 149.227L104.862 113.246Z" fill="#292A2E"/>
<path d="M284.478 215.095C284.53 215.095 284.58 215.08 284.624 215.053C284.668 215.025 284.704 214.986 284.726 214.94L292 200.017C292.03 199.952 292.033 199.877 292.008 199.81C291.984 199.742 291.934 199.687 291.87 199.655C291.805 199.624 291.731 199.619 291.663 199.641C291.594 199.663 291.538 199.711 291.504 199.775L284.23 214.698C284.21 214.74 284.2 214.786 284.203 214.833C284.205 214.88 284.22 214.925 284.244 214.965C284.269 215.004 284.304 215.037 284.344 215.06C284.385 215.083 284.431 215.095 284.478 215.095Z" fill="#292A2E"/>
<path d="M272.179 214.229C272.24 214.229 272.299 214.208 272.348 214.171C272.396 214.134 272.43 214.082 272.446 214.023L280.865 181.879C280.874 181.844 280.876 181.808 280.871 181.772C280.866 181.736 280.854 181.702 280.836 181.67C280.818 181.639 280.794 181.612 280.765 181.59C280.736 181.568 280.703 181.552 280.668 181.543C280.633 181.534 280.597 181.531 280.561 181.536C280.525 181.541 280.49 181.553 280.459 181.571C280.428 181.59 280.4 181.614 280.379 181.643C280.357 181.672 280.341 181.704 280.331 181.74L271.912 213.883C271.893 213.954 271.904 214.029 271.941 214.092C271.978 214.155 272.038 214.201 272.109 214.22C272.132 214.226 272.155 214.229 272.179 214.229Z" fill="#292A2E"/>
<path d="M256.118 215.652C256.163 215.652 256.208 215.64 256.249 215.619C256.289 215.598 256.323 215.566 256.348 215.529C256.374 215.491 256.389 215.447 256.393 215.402C256.398 215.356 256.391 215.311 256.373 215.269L247.669 194.773C247.641 194.706 247.586 194.652 247.519 194.625C247.451 194.597 247.375 194.598 247.308 194.627C247.24 194.655 247.187 194.709 247.16 194.777C247.132 194.845 247.133 194.921 247.161 194.988L255.864 215.485C255.886 215.535 255.921 215.577 255.966 215.606C256.011 215.636 256.064 215.652 256.118 215.652Z" fill="#292A2E"/>
<path d="M271.867 220.4C271.89 220.4 271.912 220.398 271.934 220.392C272.005 220.374 272.066 220.329 272.104 220.266C272.141 220.204 272.153 220.129 272.135 220.058L262.022 179.6C262.013 179.565 261.997 179.532 261.976 179.503C261.954 179.474 261.927 179.449 261.896 179.431C261.865 179.412 261.83 179.4 261.795 179.394C261.759 179.389 261.722 179.391 261.687 179.4C261.652 179.409 261.619 179.424 261.59 179.446C261.561 179.467 261.536 179.494 261.518 179.525C261.499 179.557 261.487 179.591 261.481 179.627C261.476 179.663 261.478 179.699 261.487 179.734L271.599 220.192C271.614 220.251 271.649 220.304 271.697 220.342C271.746 220.38 271.805 220.4 271.867 220.4Z" fill="#292A2E"/>
<path d="M268.281 187.891C271.025 182.123 269.234 175.537 264.282 173.181C259.329 170.825 253.09 173.591 250.346 179.359C247.602 185.128 249.393 191.713 254.346 194.069C259.298 196.425 265.537 193.659 268.281 187.891Z" fill="#0CBC8B"/>
<path opacity="0.4" d="M268.281 187.891C271.025 182.123 269.234 175.537 264.282 173.181C259.329 170.825 253.09 173.591 250.346 179.359C247.602 185.128 249.393 191.713 254.346 194.069C259.298 196.425 265.537 193.659 268.281 187.891Z" fill="white"/>
<path d="M251.261 201.208C252.692 197.654 251.438 193.801 248.46 192.602C245.482 191.403 241.908 193.311 240.477 196.865C239.046 200.418 240.299 204.271 243.277 205.471C246.255 206.67 249.829 204.761 251.261 201.208Z" fill="#0CBC8B"/>
<path d="M286.349 196.648C290.773 195.306 293.024 189.818 291.377 184.389C289.73 178.96 284.81 175.647 280.386 176.988C275.963 178.33 273.712 183.819 275.358 189.247C277.005 194.676 281.926 197.99 286.349 196.648Z" fill="#0CBC8B"/>
<path d="M293.841 208.2C296.31 207.787 297.84 204.636 297.258 201.161C296.677 197.687 294.204 195.205 291.736 195.618C289.267 196.031 287.737 199.182 288.319 202.657C288.9 206.132 291.373 208.613 293.841 208.2Z" fill="#0CBC8B"/>
<path d="M248.001 220.78H290.96V210.074H248.001V220.78Z" fill="#292A2E"/>
<path opacity="0.3" d="M248.001 220.78H290.96V210.074H248.001V220.78Z" fill="white"/>
<path d="M268.363 207.385C270.109 203.05 268.566 198.344 264.916 196.874C261.267 195.404 256.893 197.727 255.147 202.062C253.401 206.397 254.944 211.103 258.594 212.573C262.243 214.043 266.617 211.72 268.363 207.385Z" fill="#0CBC8B"/>
<path d="M277.897 211.498C281.532 211.498 284.478 208.551 284.478 204.916C284.478 201.282 281.532 198.335 277.897 198.335C274.262 198.335 271.316 201.282 271.316 204.916C271.316 208.551 274.262 211.498 277.897 211.498Z" fill="#0CBC8B"/>
<path opacity="0.68" d="M251.261 201.208C252.692 197.654 251.438 193.801 248.46 192.602C245.482 191.403 241.908 193.311 240.477 196.865C239.046 200.418 240.299 204.271 243.277 205.471C246.255 206.67 249.829 204.761 251.261 201.208Z" fill="white"/>
<path opacity="0.68" d="M286.349 196.648C290.773 195.306 293.024 189.818 291.377 184.389C289.73 178.96 284.81 175.647 280.386 176.988C275.963 178.33 273.712 183.819 275.358 189.247C277.005 194.676 281.926 197.99 286.349 196.648Z" fill="white"/>
<path opacity="0.68" d="M293.841 208.2C296.31 207.787 297.84 204.636 297.258 201.161C296.677 197.687 294.204 195.205 291.736 195.618C289.267 196.031 287.737 199.182 288.319 202.657C288.9 206.132 291.373 208.613 293.841 208.2Z" fill="white"/>
<path opacity="0.68" d="M268.363 207.385C270.109 203.05 268.566 198.344 264.916 196.874C261.267 195.404 256.893 197.727 255.147 202.062C253.401 206.397 254.944 211.103 258.594 212.573C262.243 214.043 266.617 211.72 268.363 207.385Z" fill="white"/>
<path opacity="0.4" d="M277.897 211.498C281.532 211.498 284.478 208.551 284.478 204.916C284.478 201.282 281.532 198.335 277.897 198.335C274.262 198.335 271.316 201.282 271.316 204.916C271.316 208.551 274.262 211.498 277.897 211.498Z" fill="white"/>
<path d="M256.756 199.376C261.752 200.772 264.38 196.689 264.38 196.689L264.377 196.684C261.714 195.889 258.76 197.007 256.756 199.376Z" fill="#292A2E"/>
<path d="M288.311 201.048C290.77 200.106 292.807 198.31 294.051 195.989C293.377 195.629 292.604 195.498 291.85 195.616C289.77 195.964 288.357 198.256 288.311 201.048Z" fill="#292A2E"/>
<path d="M276.723 198.441C278.638 200.167 281.032 201.272 283.588 201.61C282.908 200.441 281.884 199.509 280.655 198.942C279.427 198.375 278.054 198.2 276.723 198.441Z" fill="#292A2E"/>
<path d="M306.782 220.681H11.5518C11.439 220.681 11.3308 220.636 11.251 220.556C11.1712 220.477 11.1264 220.369 11.1264 220.256C11.1264 220.143 11.1712 220.035 11.251 219.955C11.3308 219.875 11.439 219.83 11.5518 219.83H306.782C306.895 219.83 307.003 219.875 307.083 219.955C307.163 220.035 307.208 220.143 307.208 220.256C307.208 220.369 307.163 220.477 307.083 220.556C307.003 220.636 306.895 220.681 306.782 220.681Z" fill="#292A2E"/>
<path d="M169.129 85.5498L163.722 96.4692L163.811 94.8166C163.829 94.2824 163.644 93.7612 163.292 93.3584C162.941 92.9557 162.45 92.7014 161.918 92.6472C161.642 92.6287 161.366 92.6664 161.106 92.7582C160.846 92.8499 160.607 92.9937 160.404 93.1808C160.202 93.3679 160.039 93.5944 159.927 93.8463C159.814 94.0983 159.755 94.3706 159.751 94.6464L159.411 115.103L165.964 115.377C167.999 115.463 170.014 114.938 171.75 113.871C173.485 112.804 174.862 111.243 175.705 109.388L179.506 100.979C179.712 100.546 179.761 100.055 179.647 99.589C179.533 99.1232 179.261 98.7113 178.877 98.4229C178.526 98.1701 178.103 98.0361 177.67 98.0407C177.237 98.0452 176.817 98.1879 176.471 98.448C176.454 98.4192 176.43 98.3953 176.402 98.3787C176.374 98.3644 176.343 98.3572 176.312 98.3578C176.281 98.3584 176.251 98.3667 176.224 98.3821L176.928 96.8324C177.159 96.3505 177.198 95.799 177.038 95.2893C176.877 94.7796 176.529 94.3497 176.064 94.0866C175.641 93.8662 175.153 93.8022 174.686 93.906C174.22 94.0098 173.805 94.2747 173.515 94.6541C173.507 94.6341 173.495 94.6157 173.481 94.5996L173.77 93.9616C173.976 93.5285 174.026 93.0375 173.912 92.5718C173.797 92.106 173.525 91.6942 173.142 91.4059C172.716 91.0987 172.187 90.9686 171.667 91.0429C171.146 91.1172 170.675 91.3902 170.352 91.8045C170.339 91.7994 170.325 91.7957 170.311 91.7935L172.563 87.2458C172.788 86.7905 172.824 86.2641 172.661 85.7826C172.499 85.3011 172.152 84.9039 171.697 84.6782C171.241 84.4526 170.715 84.4171 170.234 84.5795C169.752 84.7419 169.355 85.089 169.129 85.5443V85.5498Z" fill="#E98862"/>
<path opacity="0.2" d="M170.473 92.0074C170.47 92.0294 170.464 92.0508 170.454 92.0708L168.216 96.4623C168.204 96.4847 168.189 96.5046 168.17 96.5209C168.151 96.5372 168.129 96.5495 168.105 96.5573C168.081 96.5651 168.056 96.568 168.031 96.5661C168.006 96.5641 167.981 96.5573 167.959 96.5459C167.937 96.5346 167.917 96.5189 167.901 96.4998C167.884 96.4808 167.872 96.4587 167.864 96.4349C167.856 96.411 167.853 96.3859 167.855 96.3609C167.857 96.3359 167.864 96.3116 167.876 96.2892L170.113 91.8972C170.134 91.8574 170.168 91.8261 170.209 91.8087C170.25 91.7913 170.296 91.7889 170.339 91.8021C170.382 91.8152 170.419 91.8429 170.443 91.8805C170.468 91.918 170.478 91.9629 170.473 92.0074H170.473Z" fill="#0A0A0A"/>
<path opacity="0.2" d="M173.53 94.743C173.527 94.7646 173.521 94.7857 173.511 94.8051L171.779 98.2706C171.769 98.2945 171.754 98.316 171.735 98.3339C171.716 98.3518 171.694 98.3656 171.669 98.3746C171.645 98.3835 171.619 98.3874 171.593 98.3859C171.567 98.3844 171.542 98.3777 171.518 98.3661C171.495 98.3545 171.475 98.3382 171.458 98.3183C171.441 98.2985 171.429 98.2754 171.421 98.2505C171.414 98.2256 171.411 98.1995 171.414 98.1737C171.417 98.1479 171.425 98.123 171.438 98.1005L173.171 94.6349C173.191 94.5946 173.224 94.5625 173.266 94.5446C173.307 94.5267 173.353 94.524 173.396 94.537C173.44 94.55 173.477 94.5779 173.501 94.6156C173.526 94.6534 173.536 94.6987 173.53 94.7434L173.53 94.743Z" fill="#0A0A0A"/>
<path opacity="0.2" d="M176.501 98.573C176.498 98.596 176.491 98.6184 176.48 98.639L175.624 100.255C175.613 100.279 175.597 100.299 175.578 100.316C175.559 100.333 175.536 100.346 175.512 100.354C175.487 100.362 175.461 100.365 175.436 100.363C175.41 100.361 175.385 100.353 175.363 100.341C175.34 100.329 175.32 100.313 175.304 100.293C175.288 100.273 175.276 100.25 175.269 100.225C175.261 100.2 175.259 100.175 175.263 100.149C175.266 100.124 175.274 100.099 175.287 100.077L176.143 98.4603C176.164 98.421 176.198 98.3902 176.239 98.3733C176.281 98.3565 176.326 98.3546 176.369 98.3679C176.411 98.3813 176.448 98.4091 176.472 98.4466C176.496 98.4841 176.507 98.5288 176.501 98.573Z" fill="#0A0A0A"/>
<path d="M156.146 101.512L140.115 147.494L114.06 113.422L89.6809 133.791L134.721 181.889C136.323 183.719 138.381 185.092 140.686 185.869C142.99 186.645 145.46 186.798 147.842 186.31C150.225 185.823 152.436 184.713 154.25 183.094C156.065 181.474 157.418 179.403 158.173 177.091L180.126 109.381L156.146 101.512Z" fill="#367CFF"/>
<path d="M13.8679 200.227C11.6335 200.227 9.43207 199.687 7.45116 198.653C5.47025 197.619 3.7685 196.122 2.4908 194.289C1.2131 192.456 0.397289 190.341 0.112831 188.125C-0.171627 185.908 0.0836918 183.656 0.857048 181.56C1.64186 179.433 20.1158 129.33 23.6183 120.303L49.478 130.336C47.509 135.411 40.3751 154.65 34.641 170.151L44.1643 169.116L47.1623 196.691L15.3687 200.145C14.8703 200.2 14.3693 200.227 13.8679 200.227Z" fill="#367CFF"/>
<path d="M30.4881 198.81L26.2591 219.86H108.399L103.668 198.41L30.4881 198.81Z" fill="#262626"/>
<path d="M48.2483 104.738C41.3853 105.248 34.3875 107.477 29.2341 112.038C21.4621 118.918 22.1538 123.218 26.0336 142.27C29.3719 158.663 28.0473 165.826 30.2805 196.076C30.3465 196.969 30.4873 198.81 30.4873 198.81L103.901 198.688C103.901 198.688 110.779 158.555 114.578 140.044C117.466 125.971 125.052 108.888 93.0664 105.445C92.9822 105.436 67.3292 103.321 48.2483 104.738Z" fill="#367CFF"/>
<path d="M93.0664 105.445C92.9814 105.433 90.6512 114.203 72.4665 112.838C59.8754 111.895 56.8076 103.326 56.5192 103.326C57.8766 103.037 60.0805 102.737 60.6836 102.416C62.6659 101.352 64.11 100.054 64.8366 97.2714C65.4053 95.0952 65.6949 86.7179 65.6949 82.5148L85.0669 86.8676C84.7968 91.6093 82.9068 102.6 89.5307 104.546C90.6329 104.869 91.8201 105.165 93.0664 105.445Z" fill="#E98862"/>
<path d="M84.3948 96.1905C76.7581 96.7933 66.9477 93.5685 65.0829 83.3796L63.4014 74.186C61.5382 63.997 65.3789 54.7583 74.9715 53.0024C84.5649 51.2477 93.2464 58.1962 95.1099 68.3852L95.8544 72.4556C96.5728 76.3664 98.0225 95.1156 84.3948 96.1905Z" fill="#E98862"/>
<path d="M91.4777 86.8357C90.1067 79.9481 89.4784 75.3506 89.5512 70.5044C91.4819 67.1175 90.9745 63.2305 90.5355 61.5507C92.428 62.5831 93.2192 62.6958 95.0019 62.6958C95.0019 62.6958 91.8086 49.8806 80.9552 46.4321C78.9598 45.6554 73.8643 44.6744 67.0983 45.6022C61.3434 46.3917 47.1581 50.6943 45.1316 66.6645V66.6735C45.0644 67.2031 43.7023 81.9176 40.9872 88.9771C37.3366 98.4675 32.2117 101.417 32.3419 112.366C32.509 126.451 58.4028 128.326 74.0208 127.273C89.6388 126.219 98.3572 121.083 98.4704 110.933C98.5942 99.5599 94.2209 100.616 91.4777 86.8357Z" fill="#0A0A0A"/>
<path d="M91.4819 81.0621C88.5669 81.5951 85.6331 78.9085 85.1013 75.993C84.5696 73.0774 86.6374 71.0378 89.5529 70.5056L91.4819 81.0621Z" fill="#E98862"/>
<path d="M111.181 158.559C111.169 158.559 111.158 158.558 111.146 158.556C111.123 158.551 111.1 158.542 111.08 158.529C111.059 158.516 111.042 158.499 111.028 158.479C111.014 158.459 111.005 158.436 111 158.412C110.995 158.388 110.994 158.364 110.999 158.34L114.077 139.057C114.088 139.01 114.117 138.97 114.157 138.944C114.197 138.918 114.245 138.908 114.292 138.917C114.339 138.926 114.381 138.953 114.408 138.991C114.436 139.03 114.447 139.078 114.441 139.126L111.363 158.409C111.356 158.451 111.333 158.49 111.3 158.517C111.266 158.545 111.224 158.56 111.181 158.559Z" fill="#0C0C0C"/>
<path d="M30.4881 198.996C30.4403 198.995 30.3944 198.977 30.36 198.944C30.3256 198.911 30.3054 198.865 30.3035 198.818L28.0031 139.098C28.0011 139.049 28.0187 139.002 28.052 138.965C28.0852 138.929 28.1314 138.908 28.1805 138.906C28.2289 138.906 28.2754 138.925 28.3109 138.958C28.3464 138.991 28.3683 139.036 28.3723 139.084L30.6731 198.803C30.675 198.852 30.6573 198.9 30.624 198.936C30.5906 198.972 30.5444 198.994 30.4953 198.996H30.4881Z" fill="#0C0C0C"/>
</svg>
