<svg width="237" height="289" viewBox="0 0 237 289" fill="none" xmlns="http://www.w3.org/2000/svg">
  <g clip-path="url(#clip0_10_2916)">
    <path d="M222.272 4.93876L7.08261 11.7925L15.7853 283.911L230.975 277.058L222.272 4.93876Z" fill="#292A2E" />
    <path opacity="0.58" d="M222.272 4.93876L7.08261 11.7925L15.7853 283.911L230.975 277.058L222.272 4.93876Z" fill="white" />
    <path d="M214.401 0.198619L0.199402 17.833L22.5993 288.801L236.801 271.166L214.401 0.198619Z" fill="white" />
    <path d="M214.232 0.398153L236.602 270.998L22.7682 288.602L0.398975 18.0018L214.233 0.398153M214.57 0L0 17.6645L22.4299 289L237 271.336L214.57 0Z" fill="black" />
    <path d="M199.83 19.2714L102.062 27.3202L102.645 34.3752L200.413 26.3263L199.83 19.2714Z" fill="#292A2E" />
    <path d="M201.491 38.4762L103.685 46.5038L103.715 46.8717L201.521 38.8441L201.491 38.4762Z" fill="black" />
    <path d="M202.562 51.4319L104.756 59.4595L104.787 59.8274L202.592 51.7998L202.562 51.4319Z" fill="black" />
    <path d="M203.633 64.388L105.827 72.4156L105.858 72.7835L203.663 64.7559L203.633 64.388Z" fill="black" />
    <path d="M204.704 77.3439L106.898 85.3715L106.929 85.7394L204.734 77.7117L204.704 77.3439Z" fill="black" />
    <path d="M151.896 94.7295L107.97 98.3348L108 98.7027L151.926 95.0974L151.896 94.7295Z" fill="black" />
    <path d="M207.404 110.886L25.2788 125.88L25.862 132.934L207.987 117.941L207.404 110.886Z" fill="#292A2E" />
    <path d="M119.06 214.132L44.7196 220.234L44.75 220.602L119.09 214.5L119.06 214.132Z" fill="black" />
    <path d="M120.32 229.38L45.9805 235.481L46.0108 235.849L120.351 229.748L120.32 229.38Z" fill="black" />
    <path d="M121.581 244.627L47.2409 250.729L47.2713 251.097L121.611 244.995L121.581 244.627Z" fill="black" />
    <path d="M122.841 259.875L48.5014 265.976L48.5317 266.344L122.872 260.243L122.841 259.875Z" fill="black" />
    <path d="M36.9789 223.861C39.1385 223.861 40.8892 222.114 40.8892 219.959C40.8892 217.804 39.1385 216.057 36.9789 216.057C34.8194 216.057 33.0687 217.804 33.0687 219.959C33.0687 222.114 34.8194 223.861 36.9789 223.861Z" fill="#292A2E" />
    <path d="M40.843 270.605C43.0026 270.605 44.7532 268.858 44.7532 266.703C44.7532 264.548 43.0026 262.801 40.843 262.801C38.6834 262.801 36.9327 264.548 36.9327 266.703C36.9327 268.858 38.6834 270.605 40.843 270.605Z" fill="#292A2E" />
    <path d="M39.5832 255.363C41.7428 255.363 43.4934 253.616 43.4934 251.461C43.4934 249.306 41.7428 247.558 39.5832 247.558C37.4236 247.558 35.6729 249.306 35.6729 251.461C35.6729 253.616 37.4236 255.363 39.5832 255.363Z" fill="#292A2E" />
    <path d="M38.2809 239.612C40.4405 239.612 42.1911 237.865 42.1911 235.71C42.1911 233.555 40.4405 231.808 38.2809 231.808C36.1213 231.808 34.3706 233.555 34.3706 235.71C34.3706 237.865 36.1213 239.612 38.2809 239.612Z" fill="#292A2E" />
    <path d="M215.357 206.204L141.017 212.306L141.047 212.673L215.387 206.572L215.357 206.204Z" fill="black" />
    <path d="M216.618 221.452L142.278 227.553L142.308 227.921L216.648 221.82L216.618 221.452Z" fill="black" />
    <path d="M217.878 236.699L143.538 242.801L143.568 243.169L217.908 237.067L217.878 236.699Z" fill="black" />
    <path d="M219.138 251.947L144.799 258.048L144.829 258.416L219.169 252.315L219.138 251.947Z" fill="black" />
    <path d="M133.241 215.936C135.4 215.936 137.151 214.189 137.151 212.034C137.151 209.879 135.4 208.132 133.241 208.132C131.081 208.132 129.33 209.879 129.33 212.034C129.33 214.189 131.081 215.936 133.241 215.936Z" fill="#292A2E" />
    <path d="M137.105 262.68C139.264 262.68 141.015 260.933 141.015 258.778C141.015 256.622 139.264 254.875 137.105 254.875C134.945 254.875 133.194 256.622 133.194 258.778C133.194 260.933 134.945 262.68 137.105 262.68Z" fill="#292A2E" />
    <path d="M135.845 247.438C138.004 247.438 139.755 245.691 139.755 243.536C139.755 241.381 138.004 239.634 135.845 239.634C133.685 239.634 131.935 241.381 131.935 243.536C131.935 245.691 133.685 247.438 135.845 247.438Z" fill="#292A2E" />
    <path d="M134.543 231.687C136.703 231.687 138.453 229.94 138.453 227.785C138.453 225.63 136.703 223.883 134.543 223.883C132.383 223.883 130.633 225.63 130.633 227.785C130.633 229.94 132.383 231.687 134.543 231.687Z" fill="#292A2E" />
    <path d="M57.4716 69.7779C64.5801 69.7779 70.3427 64.0272 70.3427 56.9333C70.3427 49.8395 64.5801 44.0887 57.4716 44.0887C50.3631 44.0887 44.6005 49.8395 44.6005 56.9333C44.6005 64.0272 50.3631 69.7779 57.4716 69.7779Z" fill="#367CFF" />
    <path d="M89.7091 88.6266C86.5486 93.3259 82.368 97.2544 77.4776 100.12C72.5872 102.986 67.1127 104.716 61.4605 105.182C55.8084 105.647 50.1238 104.836 44.8289 102.808C39.534 100.781 34.7647 97.589 30.8753 93.4701C33.9368 88.6469 38.0776 84.5982 42.9722 81.6421C47.8668 78.6861 53.3817 76.9032 59.0835 76.4338C64.7853 75.9644 70.5184 76.8212 75.8323 78.9368C81.1462 81.0525 85.8958 84.3693 89.708 88.6266H89.7091Z" fill="#367CFF" />
    <path d="M58.399 30.3028C68.0471 30.3133 77.3179 34.0446 84.2736 40.717C91.2293 47.3894 95.3316 56.4865 95.723 66.1069C96.1145 75.7272 92.7649 85.1263 86.3743 92.3395C79.9836 99.5528 71.0466 104.022 61.431 104.813C60.3957 104.898 59.3474 104.942 58.3143 104.942C48.6662 104.931 39.3954 101.2 32.4397 94.5274C25.484 87.855 21.3817 78.7579 20.9903 69.1376C20.5988 59.5172 23.9484 50.1182 30.339 42.9049C36.7297 35.6916 45.6667 31.2223 55.2822 30.4313C56.3176 30.346 57.3651 30.3028 58.3994 30.3028M58.3994 29.9338C57.3588 29.9338 56.308 29.9766 55.2527 30.0634C50.31 30.4699 45.4959 31.844 41.0854 34.1073C36.6749 36.3706 32.7543 39.4786 29.5475 43.254C26.3407 47.0294 23.9105 51.3982 22.3956 56.1109C20.8807 60.8235 20.3109 65.7879 20.7186 70.7203C21.4971 80.1398 25.7938 88.9236 32.7567 95.3304C39.7197 101.737 48.8407 105.299 58.3117 105.311C59.3525 105.311 60.4015 105.267 61.4588 105.181C66.4013 104.774 71.2151 103.4 75.6253 101.136C80.0356 98.8728 83.9559 95.7647 87.1625 91.9893C90.3691 88.2139 92.7991 83.8453 94.3139 79.1327C95.8286 74.4202 96.3984 69.456 95.9906 64.5237C95.2121 55.1042 90.9154 46.3204 83.9523 39.9137C76.9893 33.507 67.8681 29.945 58.3971 29.9338H58.3994Z" fill="black" />
    <path d="M209.218 131.945L27.0225 146.899L27.0528 147.267L209.248 132.313L209.218 131.945Z" fill="black" />
    <path d="M210.21 144.838L28.0834 159.806L28.1138 160.174L210.241 145.206L210.21 144.838Z" fill="black" />
    <path d="M211.281 157.79L29.1543 172.758L29.1846 173.125L211.311 158.157L211.281 157.79Z" fill="black" />
    <path d="M212.352 170.741L30.2248 185.709L30.2551 186.076L212.382 171.108L212.352 170.741Z" fill="black" />
    <path d="M75.2339 195.136L31.308 198.741L31.3383 199.109L75.2642 195.503L75.2339 195.136Z" fill="black" />
    <path d="M24.495 3.77486C25.89 3.9797 27.152 4.7136 28.0184 5.82375C28.8847 6.9339 29.2886 8.33475 29.1459 9.73461L27.212 30.5832C27.1148 31.6767 26.5865 32.687 25.7433 33.3921C24.9001 34.0971 23.8108 34.4393 22.715 34.3433C21.6569 34.2258 20.6871 33.699 20.0139 32.8759C19.3407 32.0529 19.0177 30.9992 19.1142 29.9411L21.1032 8.5051C21.1576 7.83339 21.4598 7.20571 21.9513 6.74351C22.4427 6.2813 23.0885 6.01741 23.7636 6.00289C24.1365 6.00183 24.5055 6.07846 24.8469 6.22787C25.1884 6.37728 25.4949 6.59619 25.7467 6.87058C25.9986 7.14497 26.1903 7.4688 26.3095 7.82136C26.4288 8.17392 26.4729 8.54744 26.4392 8.91801L25.0434 23.9652C25.0265 24.1463 24.9382 24.3134 24.7979 24.4297C24.6577 24.5459 24.4769 24.6018 24.2953 24.5851C24.2053 24.5768 24.1179 24.5508 24.038 24.5087C23.9581 24.4666 23.8872 24.4092 23.8296 24.3398C23.7719 24.2703 23.7285 24.1902 23.7019 24.104C23.6753 24.0178 23.666 23.9273 23.6745 23.8375L25.0648 8.84974C25.1009 8.52223 25.0146 8.19293 24.8225 7.92498C24.6303 7.65703 24.3458 7.46928 24.0236 7.39772C23.8451 7.36331 23.6614 7.36654 23.4843 7.40721C23.3072 7.44788 23.1405 7.52509 22.9951 7.63387C22.8497 7.74265 22.7287 7.88059 22.6399 8.03884C22.551 8.19708 22.4964 8.37212 22.4794 8.5527L20.4905 29.9895C20.4201 30.6624 20.6024 31.3375 21.002 31.884C21.4017 32.4306 21.9903 32.8097 22.6539 32.9481C23.0219 33.018 23.4004 33.0103 23.7652 32.9257C24.13 32.8411 24.4731 32.6813 24.7725 32.4567C25.0719 32.2321 25.3209 31.9476 25.5037 31.6213C25.6865 31.2951 25.799 30.9343 25.8339 30.5622L27.7804 9.58221C27.8849 8.50171 27.5553 7.42399 26.8641 6.58582C26.1728 5.74766 25.1764 5.21761 24.0938 5.11212C23.0441 5.03429 22.0057 5.37049 21.2018 6.04847C20.3978 6.72645 19.8924 7.69211 19.7942 8.73794L18.124 26.7367C18.1157 26.8264 18.0897 26.9136 18.0477 26.9933C18.0056 27.0729 17.9482 27.1436 17.8788 27.2011C17.8093 27.2586 17.7292 27.3019 17.643 27.3286C17.5568 27.3552 17.4662 27.3646 17.3763 27.3563C17.2864 27.348 17.199 27.3222 17.1191 27.2802C17.0393 27.2383 16.9685 27.181 16.9108 27.1117C16.8531 27.0424 16.8096 26.9625 16.7829 26.8764C16.7562 26.7903 16.7468 26.6999 16.7551 26.6102L18.425 8.61137C18.4927 7.89101 18.7051 7.19166 19.0497 6.55507C19.3943 5.91849 19.8639 5.35773 20.4304 4.9063C20.997 4.45486 21.6489 4.12201 22.3473 3.92761C23.0456 3.73321 23.7761 3.68126 24.495 3.77486Z" fill="#367CFF" />
  </g>
  <defs>
    <clipPath id="clip0_10_2916">
      <rect width="237" height="289" fill="white" />
    </clipPath>
  </defs>
</svg>
  