<svg width="354" height="284" viewBox="0 0 354 284" fill="none" xmlns="http://www.w3.org/2000/svg">
  <g clip-path="url(#clip0_10_3053)">
    <path d="M22.5662 284H328.969C334.306 283.995 339.477 282.142 343.603 278.755C347.728 275.369 350.554 270.658 351.599 265.424C356.58 240.689 359.004 204.95 303.9 167.251C241.344 124.454 237.762 25.135 157.913 53.6507C85.48 79.5179 111.841 130.912 51.1079 177.519C21.0931 200.553 0.329911 220.444 0.00329584 256.087C-0.191766 277.454 7.87671 284 22.5662 284Z" fill="#F3F5FD" />
    <path d="M249.943 103.848L150.405 162.573L50.8675 103.848L150.405 18.8271L249.943 103.848Z" fill="#9EBCEA" />
    <path d="M228.043 0H69.8446V205.233H228.043V0Z" fill="#C1D8ED" />
    <path d="M213.462 47.7388H84.426V52.6251H213.462V47.7388Z" fill="white" />
    <path d="M213.462 120.209H84.426V125.096H213.462V120.209Z" fill="white" />
    <path d="M213.462 62.2332H84.426V67.1195H213.462V62.2332Z" fill="white" />
    <path d="M213.462 76.7272H84.426V81.6135H213.462V76.7272Z" fill="white" />
    <path d="M213.462 91.2214H84.426V96.1077H213.462V91.2214Z" fill="white" />
    <path d="M213.462 105.715H84.426V110.602H213.462V105.715Z" fill="white" />
    <path d="M196.39 178.186H101.498V183.072H196.39V178.186Z" fill="white" />
    <path d="M213.462 134.704H84.426V139.59H213.462V134.704Z" fill="white" />
    <path d="M213.462 149.198H84.426V154.084H213.462V149.198Z" fill="white" />
    <path d="M213.462 163.692H84.426V168.578H213.462V163.692Z" fill="white" />
    <path d="M213.462 22.1611H84.426V35.4855H213.462V22.1611Z" fill="white" />
    <path d="M249.943 103.848V228.775H50.8675V103.848L150.405 162.573L249.943 103.848Z" fill="#DEE8F5" />
    <path d="M69.0161 280.089L60.3558 280.061C60.3558 280.061 60.3847 271.118 60.3847 270.326H69.0449C69.0449 271.122 69.0161 280.089 69.0161 280.089Z" fill="#E98862" />
    <path d="M103.523 279.054L94.9238 278.031C95.3107 274.776 95.7486 270.866 95.7783 270.224C95.7783 270.266 95.7783 270.3 95.7783 270.326H104.439C104.437 270.586 104.437 271.376 103.523 279.054Z" fill="#E98862" />
    <path d="M106.718 276.059C106.002 257.909 105.958 238.846 105.734 220.648C102.756 201.02 101.19 179.492 97.5133 160.003L97.4032 160.035L97.0807 157.837L65.7074 155.899L64.4867 176.398H64.6039C63.024 203.856 59.9715 247.999 58.1239 275.826L73.3285 277.111C76.0437 249.744 80.4715 206.145 82.9257 179.171C85.6186 192.915 88.1577 208.393 90.5488 222.301C91.0721 240.067 91.5096 258.581 91.4622 276.318L106.718 276.059Z" fill="#262626" />
    <path d="M79.5441 283.439C79.7769 283.438 80.0071 283.389 80.2202 283.295C80.4333 283.201 80.6247 283.064 80.7824 282.892C80.9402 282.721 81.0609 282.519 81.137 282.299C81.2132 282.079 81.2431 281.845 81.225 281.613C81.1999 281.291 81.0834 280.983 80.8891 280.725C80.6949 280.467 80.4309 280.27 80.1284 280.158L70.0487 276.781C69.8534 276.716 69.6465 276.695 69.4421 276.718C69.2376 276.74 69.0406 276.807 68.8643 276.913C67.4785 277.874 65.8208 278.366 64.135 278.315C62.8218 278.222 61.5613 277.761 60.4973 276.986C60.4037 276.909 60.2903 276.861 60.1703 276.846C60.0503 276.832 59.9286 276.852 59.8194 276.903C59.7102 276.955 59.618 277.037 59.5535 277.139C59.489 277.242 59.4549 277.36 59.4551 277.481V282.41C59.4551 282.556 59.4839 282.7 59.5396 282.834C59.5954 282.968 59.6772 283.09 59.7802 283.193C59.8832 283.295 60.0055 283.377 60.14 283.432C60.2746 283.487 60.4187 283.515 60.5641 283.515L79.5441 283.439Z" fill="#C1D8ED" />
    <path d="M114.075 283.439C114.308 283.438 114.538 283.389 114.751 283.295C114.964 283.201 115.156 283.064 115.313 282.892C115.471 282.721 115.592 282.519 115.668 282.299C115.744 282.079 115.774 281.845 115.756 281.613C115.731 281.291 115.615 280.983 115.42 280.725C115.226 280.467 114.962 280.27 114.66 280.158L104.58 276.781C104.384 276.716 104.177 276.695 103.973 276.718C103.769 276.74 103.571 276.807 103.395 276.913C102.009 277.874 100.352 278.366 98.6659 278.315C97.3529 278.222 96.0925 277.761 95.0286 276.986C94.9351 276.909 94.8217 276.861 94.7017 276.846C94.5817 276.832 94.46 276.852 94.3508 276.903C94.2416 276.955 94.1494 277.037 94.0849 277.139C94.0204 277.242 93.9862 277.36 93.9865 277.481V282.41C93.9865 282.556 94.0152 282.699 94.0709 282.834C94.1267 282.968 94.2084 283.09 94.3114 283.193C94.4144 283.295 94.5366 283.376 94.6711 283.432C94.8056 283.487 94.9496 283.515 95.095 283.515L114.075 283.439Z" fill="#C1D8ED" />
    <path d="M75.5121 113.814C75.5121 113.814 78.7011 112.123 77.9889 103.439L84.5777 102.218C84.5777 102.218 83.8354 110.003 87.1704 112.475L75.5121 113.814Z" fill="#E98862" />
    <path d="M74.2506 100.072C74.7067 102.706 76.1447 105.202 78.4685 106.052C81.227 107.062 83.2704 107.13 86.4512 107.13C90.7921 107.13 90.6486 102.603 90.7702 98.0416C90.8939 93.4613 90.5286 88.5482 88.813 86.9526C85.3901 83.7667 75.3389 85.7842 74.1166 91.1126C73.4844 93.8692 73.8184 97.564 74.2506 100.072Z" fill="#E98862" />
    <path d="M93.452 86.9023C92.7258 84.2397 90.463 82.9385 86.7205 83.9168C84.0589 84.6125 83.722 83.9869 81.4683 82.9023C80.1775 82.2807 75.9422 82.5645 74.8943 85.4308C73.7706 88.5016 70.2953 86.0147 69.9728 91.0174C69.7023 95.2046 71.118 101.19 73.9619 104.558C74.9467 105.725 76.553 107.122 77.7972 107.468C79.0191 107.807 84.3018 107.509 84.8149 107.206C87.3379 105.708 87.0789 98.838 86.6785 94.4313C86.6129 93.7059 86.7465 92.5008 88.6072 92.5008C89.8856 92.5008 90.5937 92.4707 91.254 91.9944C91.2531 91.9944 94.1782 89.5652 93.452 86.9023Z" fill="#0F1011" />
    <path d="M89.1771 98.9073C89.2092 99.2414 89.1745 99.5787 89.0751 99.8993C88.9757 100.22 88.8136 100.518 88.5982 100.775C88.3827 101.033 88.1183 101.245 87.8201 101.399C87.522 101.553 87.1962 101.647 86.8616 101.674C86.527 101.702 86.1903 101.662 85.8711 101.558C85.5519 101.454 85.2566 101.288 85.0022 101.069C84.7478 100.85 84.5395 100.582 84.3894 100.282C84.2393 99.9818 84.1504 99.6546 84.1278 99.3197C84.0948 98.987 84.1292 98.6511 84.2287 98.332C84.3283 98.0129 84.491 97.7171 84.7073 97.4622C84.9235 97.2073 85.1889 96.9985 85.4875 96.8483C85.7861 96.6981 86.1119 96.6095 86.4455 96.5878C88.2522 96.5305 89.0629 97.5129 89.1771 98.9073Z" fill="#E98862" />
    <path d="M56.474 170.761C56.474 171.99 57.1226 176.099 56.0789 176.392C55.4533 176.569 54.7143 173.506 54.7143 173.506" fill="#E98862" />
    <path d="M51.5467 170.116C51.5467 170.116 48.1387 178.411 52.0259 183.177C52.1249 183.298 52.2583 183.387 52.4086 183.431C52.5589 183.476 52.7191 183.474 52.8682 183.425C53.0173 183.377 53.1484 183.285 53.2443 183.161C53.3402 183.037 53.3965 182.887 53.4057 182.731C53.5946 179.518 54.2425 172.918 56.361 173.689V168.507" fill="#E98862" />
    <path d="M128.393 125.92C128.393 125.92 133.153 122.139 133.489 120.781C133.825 119.423 130.474 116.751 130.474 116.751C130.474 116.751 134.931 112.258 134.042 111.607C132.993 110.838 127.821 117.373 127.821 117.373C127.821 117.373 128.552 115.022 127.641 114.868C127.267 114.805 126.971 115.172 126.385 116.836C125.718 118.733 124.384 121.585 124.384 121.585L128.393 125.92Z" fill="#E98862" />
    <path d="M123.382 120.893L109.304 136.733L98.2927 117.022C97.2502 113.907 94.8764 111.821 90.0353 111.614C88.3796 111.543 80.3004 111.531 74.385 111.531C70.4108 111.531 67.1483 112.751 65.2645 114.635C64.3155 115.57 63.6054 116.72 63.1939 117.987L63.137 117.966L53.6713 143.707C53.5653 143.996 53.489 144.295 53.4437 144.599L49.6233 170.339L58.5178 171.659L62.2706 146.378L66.0934 135.982C66.4915 137.58 66.7089 139.218 66.7417 140.864C66.7417 149.525 62.824 153.409 63.1127 157.856C63.5663 164.844 97.5182 163.193 99.2478 159.223C101.029 155.13 97.4139 152.607 97.5722 139.217C97.5896 137.76 97.7021 136.236 97.8572 134.684L104.538 146.644C104.888 147.27 105.382 147.804 105.98 148.2C106.578 148.596 107.263 148.843 107.976 148.921C108.689 148.999 109.41 148.905 110.08 148.647C110.749 148.388 111.347 147.974 111.823 147.438L130.333 125.786L123.382 120.893Z" fill="#367CFF" />
    <path d="M285.023 189.579L281.116 190.503L286.014 211.223L289.922 210.299L285.023 189.579Z" fill="#F0F6FF" />
    <path d="M289.322 187.973L285.967 206.159L288.136 206.559L291.491 188.373L289.322 187.973Z" fill="#C1D8ED" />
    <path d="M289.323 187.967L288.941 189.973L291.108 190.386L291.49 188.38L289.323 187.967Z" fill="#DEE8F5" />
    <path d="M282.607 192.591L281.402 193.066L288.431 210.91L289.636 210.435L282.607 192.591Z" fill="#0CBC8B" />
    <path d="M291.662 200.402H281.066V213.945H291.662V200.402Z" fill="#C1D8ED" />
    <path d="M265.084 240.803H260.742V283.516H265.084V240.803Z" fill="#C1D8ED" />
    <path d="M261.511 240.803H257.169V283.516H261.511V240.803Z" fill="#DEE8F5" />
    <path d="M319.16 240.803H314.819V283.516H319.16V240.803Z" fill="#C1D8ED" />
    <path d="M315.587 240.803H311.246V283.516H315.587V240.803Z" fill="#DEE8F5" />
    <path d="M276.991 240.803H272.65V283.516H276.991V240.803Z" fill="#C1D8ED" />
    <path d="M273.418 240.803H269.077V283.516H273.418V240.803Z" fill="#DEE8F5" />
    <path d="M331.068 240.803H326.726V283.516H331.068V240.803Z" fill="#C1D8ED" />
    <path d="M327.495 240.803H323.153V283.516H327.495V240.803Z" fill="#DEE8F5" />
    <path d="M331.068 213.463H272.676V241.827H331.068V213.463Z" fill="#C1D8ED" />
    <path d="M315.56 213.463H257.169V241.827H315.56V213.463Z" fill="#DEE8F5" />
    <g opacity="0.53">
      <path d="M312.419 217.495H260.31V237.67H312.419V217.495Z" fill="#F3F5FD" />
    </g>
    <path d="M286.364 229.897C287.642 229.897 288.679 228.861 288.679 227.583C288.679 226.304 287.642 225.268 286.364 225.268C285.086 225.268 284.05 226.304 284.05 227.583C284.05 228.861 285.086 229.897 286.364 229.897Z" fill="white" />
    <path d="M40.497 256.065C38.8314 255.52 37.1216 256.132 35.486 257.376C37.6404 251.935 38.5299 247.02 34.846 246.799C32.2689 246.644 30.2944 248.622 28.7945 251.433C28.2671 246.49 26.9058 242.803 23.8569 244.026C20.51 245.367 20.0011 249.964 20.5087 254.778C19.034 252.32 17.4463 250.95 16.005 252.392C11.7025 256.694 22.2626 268.819 22.2626 268.819H24.885L26.382 270.445C26.0789 271.085 25.9131 271.466 25.9131 271.466L27.8143 275.335C27.8143 275.335 47.4108 258.328 40.497 256.065Z" fill="#8DDBE0" />
    <path d="M35.7949 284H20.9521L18.4674 266.671H38.2796L35.7949 284Z" fill="#C1D8ED" />
  </g>
  <defs>
    <clipPath id="clip0_10_3053">
      <rect width="354" height="284" fill="white" />
    </clipPath>
  </defs>
</svg>
  