<svg width="299" height="226" viewBox="0 0 299 226" fill="none" xmlns="http://www.w3.org/2000/svg">
  <g clip-path="url(#clip0_10_2217)">
    <path d="M275.163 226C278.382 226 281.568 225.347 284.528 224.081C287.488 222.814 290.161 220.961 292.387 218.632C294.612 216.303 296.343 213.547 297.476 210.529C298.608 207.512 299.118 204.297 298.976 201.077C298.192 183.317 286.919 157.864 256.194 134.877C213.561 102.982 239.291 28.3054 183.328 20.7004C91.3431 8.20064 99.5297 91.7978 42.731 121.602C6.57594 140.574 0.00236217 177.694 0 202.171C0.00581501 208.495 2.52014 214.559 6.99005 219.027C11.46 223.496 17.5194 226.004 23.836 226H275.163Z" fill="#F3F5FD" />
    <path d="M88.2503 167.115L216.911 167.115L216.911 1.52588e-05L88.2503 1.52588e-05L88.2503 167.115Z" fill="#DEE8F5" />
    <path d="M128.694 25.2189C128.694 28.0493 127.856 30.8162 126.286 33.1696C124.715 35.523 122.483 37.3573 119.871 38.4404C117.26 39.5236 114.386 39.807 111.613 39.2548C108.841 38.7026 106.294 37.3396 104.295 35.3382C102.296 33.3368 100.935 30.7869 100.383 28.0108C99.8319 25.2348 100.115 22.3574 101.197 19.7424C102.279 17.1274 104.11 14.8924 106.461 13.3199C108.811 11.7474 111.575 10.9081 114.402 10.9081C116.28 10.9024 118.141 11.2686 119.878 11.9858C121.615 12.703 123.192 13.7569 124.521 15.0869C125.849 16.4169 126.902 17.9968 127.618 19.7357C128.334 21.4745 128.7 23.338 128.694 25.2189Z" fill="#C1D8ED" />
    <path d="M114.402 26.6934C117.527 26.6934 120.06 24.1568 120.06 21.0278C120.06 17.8989 117.527 15.3623 114.402 15.3623C111.276 15.3623 108.743 17.8989 108.743 21.0278C108.743 24.1568 111.276 26.6934 114.402 26.6934Z" fill="white" />
    <path d="M124.701 35.142C123.368 36.5295 121.768 37.6333 119.998 38.3872C118.228 39.1411 116.325 39.5297 114.402 39.5297C112.478 39.5297 110.575 39.1411 108.805 38.3872C107.035 37.6333 105.436 36.5295 104.102 35.142C106.029 30.8297 109.92 27.8824 114.402 27.8824C118.883 27.8824 122.774 30.8297 124.701 35.142Z" fill="white" />
    <path d="M163.374 10.9969H134.518V19.7281H163.374V10.9969Z" fill="white" />
    <path d="M205.052 25.1287H134.518V28.3055H205.052V25.1287Z" fill="white" />
    <path d="M205.052 33.7061H134.518V36.8828H205.052V33.7061Z" fill="white" />
    <path d="M124.436 48.496H100.109V52.2478H124.436V48.496Z" fill="white" />
    <path d="M205.052 56.4199H100.109V66.1765H205.052V56.4199Z" fill="white" />
    <path d="M124.436 73.3585H100.109V77.1103H124.436V73.3585Z" fill="white" />
    <path d="M205.052 81.2823H100.109V91.0389H205.052V81.2823Z" fill="white" />
    <path d="M124.436 98.2209H100.109V101.973H124.436V98.2209Z" fill="white" />
    <path d="M205.052 106.145H100.109V115.901H205.052V106.145Z" fill="white" />
    <path d="M124.436 123.083H100.109V126.835H124.436V123.083Z" fill="white" />
    <path d="M205.052 131.007H100.109V140.764H205.052V131.007Z" fill="white" />
    <path d="M164.332 149.028H140.828V156.167H164.332V149.028Z" fill="#C1D8ED" />
    <path d="M67.8837 75.2643C67.8837 75.2643 70.4929 73.8791 69.9104 66.7647L75.3016 65.7635C75.3016 65.7635 74.6958 72.1424 77.4235 74.1676L67.8837 75.2643Z" fill="#E98862" />
    <path d="M66.8514 64.0059C67.2246 66.1643 68.401 68.2085 70.3025 68.9052C72.5601 69.733 74.2322 69.7891 76.8349 69.7891C80.3866 69.7891 80.2692 66.0802 80.3691 62.3429C80.4703 58.5904 80.171 54.5653 78.7672 53.2577C75.9663 50.6479 67.7416 52.3008 66.7414 56.6662C66.2241 58.9259 66.4961 61.9513 66.8514 64.0059Z" fill="#E98862" />
    <path d="M82.2727 55.4275C82.2727 55.4275 83.7271 55.1022 83.3289 53.65C83.065 52.6867 81.8326 52.9006 81.8326 52.9006C81.8326 52.9006 82.9995 52.6867 82.9995 51.6666C82.9995 51.0247 82.5062 49.9353 81.0183 50.5577C79.2724 51.2879 77.2814 51.1939 75.7672 50.9392C74.9108 50.7514 74.0414 50.6285 73.1665 50.5716H73.1618C72.156 50.554 71.1533 50.6883 70.1875 50.9699C67.4811 51.7808 63.3223 54.2206 64.2561 59.7186C65.2654 65.6605 68.8792 68.2716 69.3766 68.6332C70.3113 69.3137 76.0581 69.4515 76.6277 68.8815C77.4802 68.028 77.9438 64.5965 77.7707 58.6188C80.1261 58.2454 81.7442 58.0863 81.7442 58.0863C81.7442 58.0863 83.7014 58.16 83.7014 56.7274C83.7014 55.2948 82.2727 55.4275 82.2727 55.4275Z" fill="#0F1011" />
    <path d="M79.4894 63.0518C79.5305 63.5985 79.354 64.1393 78.9984 64.5561C78.6427 64.973 78.1367 65.232 77.591 65.2766C77.0452 65.3213 76.504 65.1479 76.0855 64.7943C75.667 64.4408 75.4052 63.9358 75.3572 63.3897C75.3303 63.1171 75.3584 62.8419 75.4398 62.5804C75.5213 62.3189 75.6545 62.0765 75.8315 61.8676C76.0085 61.6588 76.2256 61.4877 76.47 61.3646C76.7144 61.2415 76.9811 61.169 77.2541 61.1512C78.7314 61.1046 79.3955 61.9091 79.4894 63.0518Z" fill="#E98862" />
    <path d="M92.0622 222.041L84.4381 221.134C84.7813 218.245 85.1683 214.774 85.1953 214.205C85.1953 214.241 85.1953 214.273 85.1953 214.295H92.8731C92.8714 214.525 92.8714 215.226 92.0622 222.041Z" fill="#E98862" />
    <path d="M61.4701 222.96L53.7923 222.935C53.7923 222.935 53.818 214.998 53.818 214.295H61.4957C61.4957 215 61.4701 222.96 61.4701 222.96Z" fill="#E98862" />
    <path d="M94.8951 219.384C94.2593 203.483 94.2563 186.137 94.0231 170.207C91.4247 152.777 89.9787 133.676 86.7341 116.371L86.6366 116.4L86.3508 114.449L58.5366 113.912L51.8135 219.178L65.2927 220.318L73.753 133.128C76.4408 145.982 78.2438 159.312 80.6222 172.037C80.6222 172.037 81.4226 203.942 81.369 219.614L94.8951 219.384Z" fill="#262626" />
    <path d="M70.803 225.934C71.0002 225.933 71.1953 225.893 71.3772 225.817C71.5591 225.741 71.7242 225.629 71.863 225.489C72.0019 225.349 72.1118 225.182 72.1865 225C72.2612 224.817 72.2991 224.621 72.2982 224.424C72.2982 224.387 72.2966 224.349 72.2935 224.312C72.2713 224.026 72.168 223.753 71.9957 223.524C71.8235 223.295 71.5895 223.12 71.3213 223.02L62.3852 220.023C62.2121 219.966 62.0286 219.947 61.8474 219.967C61.6661 219.987 61.4914 220.046 61.3351 220.14C60.1066 220.994 58.6369 221.43 57.1422 221.385C55.9782 221.302 54.8608 220.894 53.9175 220.206C53.8346 220.138 53.7341 220.095 53.6277 220.082C53.5213 220.069 53.4134 220.086 53.3166 220.132C53.2197 220.178 53.138 220.251 53.0808 220.342C53.0236 220.432 52.9934 220.538 52.9936 220.645V225.02C52.9936 225.28 53.0967 225.529 53.2802 225.713C53.4637 225.897 53.7126 226 53.9722 226H53.9766L70.803 225.934Z" fill="#C1D8ED" />
    <path d="M101.416 225.934C101.614 225.933 101.809 225.893 101.991 225.817C102.172 225.741 102.338 225.629 102.476 225.489C102.615 225.349 102.725 225.182 102.8 225C102.875 224.817 102.913 224.621 102.912 224.424C102.912 224.387 102.912 224.349 102.907 224.312C102.885 224.026 102.781 223.753 102.609 223.524C102.437 223.295 102.203 223.12 101.935 223.02L92.9986 220.023C92.8255 219.966 92.642 219.947 92.4608 219.967C92.2795 219.987 92.1048 220.046 91.9485 220.14C90.72 220.994 89.2503 221.43 87.7556 221.385C86.5916 221.302 85.4742 220.894 84.5309 220.206C84.448 220.138 84.3475 220.095 84.2411 220.082C84.1347 220.069 84.0268 220.086 83.93 220.132C83.8331 220.178 83.7514 220.251 83.6942 220.342C83.637 220.432 83.6067 220.538 83.607 220.645V225.02C83.607 225.28 83.7101 225.529 83.8936 225.713C84.0771 225.897 84.326 226 84.5856 226H84.59L101.416 225.934Z" fill="#C1D8ED" />
    <path d="M50.3513 125.92C50.3513 127.011 50.925 130.658 50.0014 130.918C49.4466 131.074 48.7913 128.357 48.7913 128.357" fill="#E98862" />
    <path d="M45.9823 125.347C45.9823 125.347 42.9611 132.71 46.4072 136.94C46.495 137.048 46.6133 137.127 46.7465 137.166C46.8798 137.205 47.0217 137.203 47.1539 137.161C47.286 137.118 47.4022 137.036 47.4872 136.926C47.5722 136.816 47.6222 136.683 47.6304 136.544C47.7992 133.692 48.3728 127.834 50.2504 128.518V123.919" fill="#E98862" />
    <path d="M114.11 86.118C114.11 86.118 118.328 82.7622 118.628 81.5567C118.928 80.3511 115.955 77.9806 115.955 77.9806C115.955 77.9806 119.906 73.9936 119.118 73.4142C118.188 72.7317 113.603 78.5323 113.603 78.5323C113.603 78.5323 114.251 76.4453 113.444 76.3084C113.112 76.2523 112.849 76.5787 112.33 78.0553C111.738 79.7382 110.556 82.271 110.556 82.271L114.11 86.118Z" fill="#E98862" />
    <path d="M109.667 81.656L97.1864 95.7158L87.4117 78.1968C86.4831 75.4472 84.3824 73.6017 80.1039 73.4199C78.6363 73.3567 71.4735 73.3456 66.2295 73.3456C62.7061 73.3456 59.8138 74.4268 58.1438 76.1003C57.3026 76.9304 56.6731 77.9509 56.3084 79.0757L56.2581 79.0571L47.866 101.904C47.7715 102.16 47.7037 102.426 47.6635 102.696L44.2772 125.545L52.1624 126.716L55.4894 104.275L58.8781 95.0478C59.2308 96.466 59.4233 97.9193 59.4517 99.3805C59.4517 107.07 55.9797 110.516 56.2338 114.461C56.6364 120.664 86.7358 119.198 88.2695 115.675C89.8485 112.041 86.6437 109.803 86.7847 97.9171C86.7999 96.624 86.8998 95.2708 87.0372 93.8933L92.9601 104.509C93.2703 105.065 93.7088 105.539 94.2391 105.89C94.7693 106.242 95.3759 106.461 96.0081 106.53C96.6403 106.599 97.2799 106.516 97.8733 106.287C98.4667 106.058 98.9968 105.69 99.4193 105.214L115.829 85.9941L109.667 81.656Z" fill="#367CFF" />
    <path d="M43.471 197.673C41.7837 197.12 40.0523 197.74 38.3954 199.002C40.5777 193.485 41.4783 188.501 37.7475 188.276C35.1369 188.119 33.1372 190.124 31.618 192.975C31.0838 187.963 29.7053 184.224 26.6176 185.464C23.2275 186.825 22.7116 191.488 23.2259 196.368C21.7326 193.875 20.1243 192.486 18.6642 193.948C14.3066 198.311 25.0025 210.605 25.0025 210.605H27.659L29.1748 212.253C28.8681 212.902 28.7 213.289 28.7 213.289L30.6255 217.213C30.6255 217.213 50.4738 199.968 43.471 197.673Z" fill="#8DDBE0" />
    <path d="M38.7085 226H23.675L21.1586 208.428H41.2249L38.7085 226Z" fill="#C1D8ED" />
    <path d="M251.231 158.653C250.41 158.383 249.567 158.687 248.761 159.3C249.823 156.616 250.261 154.191 248.446 154.082C247.176 154.006 246.203 154.982 245.464 156.368C245.204 153.93 244.533 152.111 243.031 152.714C241.382 153.376 241.131 155.645 241.381 158.019C240.654 156.806 239.872 156.13 239.162 156.841C237.042 158.963 242.246 164.945 242.246 164.945H243.538L244.275 165.747C244.126 166.063 244.044 166.251 244.044 166.251L244.981 168.16C244.981 168.16 254.638 159.77 251.231 158.653Z" fill="#8DDBE0" />
    <path d="M248.914 172.434H241.601L240.376 163.886H250.139L248.914 172.434Z" fill="#C1D8ED" />
    <path d="M234.957 221.697H231.058V226H234.957V221.697Z" fill="#C1D8ED" />
    <path d="M272.048 221.697H268.149V226H272.048V221.697Z" fill="#C1D8ED" />
    <path d="M275.404 172.635H259.047V222.196H275.404V172.635Z" fill="#C1D8ED" />
    <path d="M231.008 173.733H214.257V221.697H231.008V173.733Z" fill="#C1D8ED" />
    <path d="M260.149 222.196H213.155V172.635H260.149V222.196ZM215.359 219.99H257.946V174.842H215.359V219.99Z" fill="#DEE8F5" />
    <path d="M260.149 222.196H213.155V194.871H260.149V222.196ZM215.359 219.989H257.946V197.078H215.359V219.989Z" fill="#DEE8F5" />
    <path d="M234.459 178.773V181.929V194.853H254.421V181.929V178.773H234.459Z" fill="#C1D8ED" />
    <path d="M247.878 181.929H227.916V194.853H247.878V181.929Z" fill="#DEE8F5" />
    <path d="M247.878 181.929H227.916V182.898H247.878V181.929Z" fill="#C1D8ED" />
    <path d="M227.916 181.929H247.879V178.773H227.916V181.929Z" fill="#DEE8F5" />
    <path d="M240.109 184.524H235.685C235.431 184.524 235.225 184.731 235.225 184.985V186.005C235.225 186.259 235.431 186.465 235.685 186.465H240.109C240.363 186.465 240.569 186.259 240.569 186.005V184.985C240.569 184.731 240.363 184.524 240.109 184.524Z" fill="white" />
    <path d="M220.056 221.697H216.157V226H220.056V221.697Z" fill="#DEE8F5" />
    <path d="M257.147 221.697H253.249V226H257.147V221.697Z" fill="#DEE8F5" />
    <path d="M252.712 215.069H231.009V219.989H252.712V215.069Z" fill="#C1D8ED" />
    <path d="M253.085 205.239H231.382V210.16H253.085V205.239Z" fill="#C1D8ED" />
    <path d="M245.306 215.069H222.355V219.989H245.306V215.069Z" fill="#DEE8F5" />
    <g opacity="0.62">
      <path d="M243.433 215.069H242.319V219.989H243.433V215.069Z" fill="#C1D8ED" />
    </g>
    <g opacity="0.62">
      <path d="M241.205 215.069H240.091V219.989H241.205V215.069Z" fill="#C1D8ED" />
    </g>
    <path d="M224.987 219.116C225.862 219.116 226.572 218.406 226.572 217.529C226.572 216.653 225.862 215.943 224.987 215.943C224.112 215.943 223.402 216.653 223.402 217.529C223.402 218.406 224.112 219.116 224.987 219.116Z" fill="#F3F5FD" />
    <path d="M245.679 205.239H222.728V210.16H245.679V205.239Z" fill="#DEE8F5" />
    <path d="M240.222 206.347H224.206V209.051H240.222V206.347Z" fill="#F3F5FD" />
    <g opacity="0.62">
      <path d="M243.806 205.239H241.698V210.16H243.806V205.239Z" fill="#C1D8ED" />
    </g>
    <path d="M232.78 215.074H254.483V210.154H232.78V215.074Z" fill="#C1D8ED" />
    <path d="M224.126 215.074H247.076V210.154H224.126V215.074Z" fill="#F3F5FD" />
    <path d="M225.999 215.074H227.113V210.154H225.999V215.074Z" fill="#DEE8F5" />
    <path d="M228.227 215.074H229.341V210.154H228.227V215.074Z" fill="#DEE8F5" />
    <path d="M244.445 214.201C245.321 214.201 246.03 213.491 246.03 212.614C246.03 211.738 245.321 211.028 244.445 211.028C243.57 211.028 242.861 211.738 242.861 212.614C242.861 213.491 243.57 214.201 244.445 214.201Z" fill="#DEE8F5" />
    <path d="M241.189 211.408H231.058V213.82H241.189V211.408Z" fill="#DEE8F5" />
  </g>
  <defs>
    <clipPath id="clip0_10_2217">
      <rect width="299" height="226" fill="white" />
    </clipPath>
  </defs>
</svg>
  